<svg xmlns="http://www.w3.org/2000/svg" viewBox="0 0 512 512" width="512" height="512">
	<style>
		tspan { white-space:pre }
		.shp0 { fill: #f4f4f4 } 
	</style>
	<path id="Layer" fill-rule="evenodd" class="shp0" d="M512 112L512 400C512 426.51 490.51 448 464 448L48 448C21.49 448 0 426.51 0 400L0 112C0 85.49 21.49 64 48 64L464 64C490.51 64 512 85.49 512 112ZM48 112L48 152.81C70.42 171.07 106.18 199.47 182.59 259.3C199.42 272.54 232.79 304.37 256 304C279.21 304.37 312.57 272.54 329.41 259.3C405.83 199.46 441.58 171.06 464 152.81L464 112L48 112ZM464 400L464 214.4C441.08 232.65 408.58 258.27 359.05 297.05C336.51 314.8 298.72 352.23 256 352C213.07 352.23 174.79 314.25 152.94 297.04C103.41 258.26 70.91 232.65 48 214.4L48 400L464 400Z" />
</svg>