<svg xmlns="http://www.w3.org/2000/svg" viewBox="0 0 448 512" width="450" height="514">
	<style>
		tspan { white-space:pre }
		.shp0 { fill: #f4f4f4 } 
	</style>
	<path id="Layer" fill-rule="evenodd" class="shp0" d="M446.6 163.5C448.7 200.5 448.7 311.3 446.6 348.3C444.8 384.2 436.6 416 410.4 442.2C384.2 468.5 352.4 476.7 316.5 478.4C279.5 480.5 168.6 480.5 131.6 478.4C95.7 476.6 64 468.4 37.7 442.2C11.4 416 3.2 384.2 1.5 348.3C-0.6 311.3 -0.6 200.4 1.5 163.4C3.3 127.5 11.4 95.7 37.7 69.5C64 43.3 95.8 35.1 131.6 33.4C168.6 31.3 279.5 31.3 316.5 33.4C352.4 35.2 384.2 43.4 410.4 69.6C436.7 95.8 444.9 127.6 446.6 163.5ZM407.8 255.9C407.8 223.3 410.5 153.3 398.8 123.8C390.9 104.1 375.8 89 356.2 81.2C326.8 69.6 256.7 72.2 224.1 72.2C191.5 72.2 121.5 69.5 92 81.2C72.3 89.1 57.2 104.2 49.4 123.8C37.8 153.2 40.4 223.3 40.4 255.9C40.4 288.5 37.7 358.5 49.4 388C57.3 407.7 72.4 422.8 92 430.6C121.4 442.2 191.5 439.6 224.1 439.6C256.7 439.6 326.7 442.3 356.2 430.6C375.9 422.7 391 407.6 398.8 388C410.5 358.6 407.8 288.5 407.8 255.9ZM370.5 136.3C370.5 151.2 358.5 163.1 343.7 163.1C328.8 163.1 316.9 151.1 316.9 136.3C316.9 121.5 328.9 109.5 343.7 109.5C358.5 109.5 370.5 121.5 370.5 136.3ZM339 255.9C339 319.5 287.7 370.8 224.1 370.8C160.5 370.8 109.2 319.5 109.2 255.9C109.2 192.3 160.5 141 224.1 141C287.7 141 339 192.3 339 255.9ZM224.1 330.6C265.2 330.6 298.8 297.1 298.8 255.9C298.8 214.7 265.3 181.2 224.1 181.2C182.9 181.2 149.4 214.7 149.4 255.9C149.4 297.1 183 330.6 224.1 330.6Z" />
</svg>